<?xml version="1.0" encoding="utf-8"?>
<!-- Generator: Adobe Illustrator 25.0.0, SVG Export Plug-In . SVG Version: 6.00 Build 0)  -->
<svg version="1.1" xmlns="http://www.w3.org/2000/svg" xmlns:xlink="http://www.w3.org/1999/xlink" x="0px" y="0px"
	 viewBox="0 0 157.85 93.86" style="enable-background:new 0 0 157.85 93.86;" xml:space="preserve">
<style type="text/css">
	.st0{fill:none;}
	.st1{fill:#FFFFFF;}
	.st2{font-family:'Retroica';}
	.st3{font-size:18px;}
	.st4{letter-spacing:0.98;}
	.st5{fill-rule:evenodd;clip-rule:evenodd;fill:url(#SVGID_1_);}
</style>
<g id="text">
	<g>
		<rect x="-0.38" y="69.03" class="st0" width="181.08" height="25.84"/>
		<text transform="matrix(1.02 0 0 1 -0.377 89.5964)"><tspan x="0" y="0" class="st1 st2 st3">BLASTER</tspan><tspan x="83.79" y="0" class="st1 st2 st3 st4"> </tspan><tspan x="90.02" y="0" class="st1 st2 st3">CLOUD</tspan></text>
	</g>
</g>
<g id="logo">
	<linearGradient id="SVGID_1_" gradientUnits="userSpaceOnUse" x1="128.9871" y1="32.5293" x2="13.8988" y2="32.5293">
		<stop  offset="0" style="stop-color:#0000C6"/>
		<stop  offset="0.0104" style="stop-color:#0400C6"/>
		<stop  offset="0.2792" style="stop-color:#5C00CB"/>
		<stop  offset="0.5158" style="stop-color:#A200CE"/>
		<stop  offset="0.7114" style="stop-color:#D400D1"/>
		<stop  offset="0.8587" style="stop-color:#F300D2"/>
		<stop  offset="0.9408" style="stop-color:#FF00D3"/>
	</linearGradient>
	<path class="st5" d="M30.04,58.6h8.6c1.77,0,3.22,1.45,3.22,3.23c0,1.78-1.45,3.23-3.22,3.23h-8.6c-1.77,0-3.23-1.45-3.23-3.23
		C26.81,60.05,28.27,58.6,30.04,58.6L30.04,58.6z M50.73,61.83c0,4.27-6.55,4.27-6.55,0C44.18,57.57,50.73,57.57,50.73,61.83
		L50.73,61.83z M56.6,58.6h11.68c1.77,0,3.22-1.45,3.22-3.23c0-1.78-1.45-3.23-3.22-3.23H57.74h-3.88c-1.77,0-3.23-1.45-3.23-3.23
		c0-1.78,1.45-3.23,3.23-3.23h3.88h21.73c1.77,0,3.23-1.45,3.23-3.23c0-1.78-1.45-3.23-3.23-3.23H60.39H51.4
		c-1.78,0-3.23-1.45-3.23-3.23s1.45-3.23,3.23-3.23h8.99h4.5c4.24,0,4.24-6.45,0-6.45H30.77c-1.96,0-3.53-1.46-3.24-3.66
		c0.19-1.46,1.28-2.8,3.17-2.8h11.48C47.11,8.19,58.66,0,72.13,0c10.28,0,19.43,4.77,25.39,12.21c12.73-5.64,26.86,5.18,24.5,19.1
		c6.16,2.75,10.46,8.93,10.46,16.11c0,9.86-8.01,17.64-17.63,17.64H89.69H72.13H56.6c-1.77,0-3.23-1.45-3.23-3.23
		C53.37,60.05,54.82,58.6,56.6,58.6L56.6,58.6z M22.71,45.69h20.68c1.77,0,3.23,1.45,3.23,3.23c0,1.77-1.45,3.23-3.23,3.23H22.71
		c-1.78,0-3.23-1.45-3.23-3.23C19.49,47.14,20.94,45.69,22.71,45.69L22.71,45.69z M24.8,32.78c4.4,0,4.4,6.46,0,6.46
		C20.56,39.24,20.56,32.78,24.8,32.78L24.8,32.78z M34.13,32.78h5.71c1.77,0,3.23,1.45,3.23,3.23s-1.45,3.23-3.23,3.23h-5.71
		c-1.78,0-3.23-1.45-3.23-3.23S32.35,32.78,34.13,32.78L34.13,32.78z M73.93,26.33c4.4,0,4.4,6.45,0,6.45
		C69.68,32.78,69.68,26.33,73.93,26.33L73.93,26.33z"/>
</g>
</svg>
